<svg width="1642" height="479" viewBox="0 0 1642 479" fill="none" xmlns="http://www.w3.org/2000/svg">
<rect x="724.116" y="277.849" width="685" height="93" rx="2.5" fill="#DADADA" stroke="black" stroke-width="5"/>
<rect x="724.116" y="371.849" width="685" height="105" rx="2.5" fill="white" stroke="black" stroke-width="5"/>
<rect x="1408.5" y="406.5" width="232" height="15" rx="2.5" fill="white" stroke="black" stroke-width="5"/>
<path d="M1193.12 320.349C1193.12 327.573 1187.75 334.656 1177.87 340.078C1168.08 345.449 1154.38 348.849 1139.12 348.849C1123.85 348.849 1110.16 345.449 1100.37 340.078C1090.49 334.656 1085.12 327.573 1085.12 320.349C1085.12 313.125 1090.49 306.042 1100.37 300.621C1110.16 295.249 1123.85 291.849 1139.12 291.849C1154.38 291.849 1168.08 295.249 1177.87 300.621C1187.75 306.042 1193.12 313.125 1193.12 320.349Z" fill="#919191" stroke="black" stroke-width="5"/>
<path d="M860.116 323.849C860.116 331.232 854.72 338.437 844.85 343.939C835.063 349.396 821.374 352.849 806.116 352.849C790.859 352.849 777.169 349.396 767.382 343.939C757.512 338.437 752.116 331.232 752.116 323.849C752.116 316.466 757.512 309.261 767.382 303.759C777.169 298.302 790.859 294.849 806.116 294.849C821.374 294.849 835.063 298.302 844.85 303.759C854.72 309.261 860.116 316.466 860.116 323.849Z" fill="#919191" stroke="black" stroke-width="5"/>
<path d="M1029.12 320.349C1029.12 327.562 1023.71 334.646 1013.73 340.073C1003.84 345.448 990.022 348.849 974.616 348.849C959.211 348.849 945.388 345.448 935.506 340.073C925.527 334.646 920.116 327.562 920.116 320.349C920.116 313.136 925.527 306.052 935.506 300.625C945.388 295.25 959.211 291.849 974.616 291.849C990.022 291.849 1003.84 295.25 1013.73 300.625C1023.71 306.052 1029.12 313.136 1029.12 320.349Z" fill="#919191" stroke="black" stroke-width="5"/>
<path d="M1361.12 320.349C1361.12 327.573 1355.75 334.656 1345.87 340.078C1336.08 345.449 1322.38 348.849 1307.12 348.849C1291.85 348.849 1278.16 345.449 1268.37 340.078C1258.49 334.656 1253.12 327.573 1253.12 320.349C1253.12 313.125 1258.49 306.042 1268.37 300.621C1278.16 295.249 1291.85 291.849 1307.12 291.849C1322.38 291.849 1336.08 295.249 1345.87 300.621C1355.75 306.042 1361.12 313.125 1361.12 320.349Z" fill="#919191" stroke="black" stroke-width="5"/>
<path d="M761 338C778.4 327.435 821.36 312.645 854 338" stroke="black" stroke-width="5"/>
<path d="M930 335C947.587 325.19 991.009 311.456 1024 335" stroke="black" stroke-width="5"/>
<path d="M1094 335C1111.4 325.19 1154.36 311.456 1187 335" stroke="black" stroke-width="5"/>
<path d="M1259 335C1276.77 325.19 1320.66 311.456 1354 335" stroke="black" stroke-width="5"/>
<line x1="781.116" y1="319.849" x2="781.116" y2="344.849" stroke="black" stroke-width="5" stroke-linecap="round"/>
<line x1="1112.12" y1="319.849" x2="1112.12" y2="344.849" stroke="black" stroke-width="5" stroke-linecap="round"/>
<line x1="830.116" y1="319.849" x2="830.116" y2="344.849" stroke="black" stroke-width="5" stroke-linecap="round"/>
<line x1="1162.12" y1="319.849" x2="1162.12" y2="344.849" stroke="black" stroke-width="5" stroke-linecap="round"/>
<rect x="768.616" y="284" width="76" height="55" rx="5" fill="black"/>
<rect x="1099.62" y="283" width="76" height="55" rx="5" fill="black"/>
<line x1="1389.98" y1="312.825" x2="1366.17" y2="306.694" stroke="black" stroke-width="5" stroke-linecap="round"/>
<line x1="1377.5" y1="361.312" x2="1353.69" y2="355.18" stroke="black" stroke-width="5" stroke-linecap="round"/>
<rect x="1446.27" y="314.164" width="76.2403" height="54.6199" rx="5" transform="rotate(104.441 1446.27 314.164)" fill="black"/>
<path d="M806 294.5C801.139 252.675 794.982 159.789 792.273 105.39M792.273 105.39C789.909 57.9166 778.952 26.305 797.158 10.9433C822.67 -10.5824 867.709 13.2192 870.554 63.2874C873.399 113.356 776.107 151.476 755.055 130.424C734.004 109.373 755.055 95.1489 792.273 105.39ZM792.273 105.39C835.279 105.39 904.691 141.803 904.691 186.182C904.691 238.764 755.055 220.32 774.4 227.716C790.563 233.896 925.174 234.544 935.415 206.665C945.656 178.786 919.191 102.325 935.415 85.4767C950.208 70.1149 924.605 143.51 928.588 166.838C932.57 190.165 988.579 182.529 998 169.682C1010.52 152.614 977.518 72.9597 990.604 79.2182C1003.69 85.4767 963.294 233.406 1010.52 227.716C1057.74 222.027 1048.3 185.444 1045.79 152.614C1043.4 121.321 1066.84 74.0976 1091.88 73.5286C1116.91 72.9597 1135.12 150.338 1120.9 186.182C1106.67 222.027 1087.33 216.337 1072.53 212.354C1042.74 204.333 1039.78 129.771 1045.79 107.097C1053.19 79.2182 1105.53 67.8391 1144.79 73.5286M1144.79 73.5286C1184.05 79.2182 1214.2 91.7351 1209.08 117.338C1202.85 148.526 1163 165.7 1144.79 161.717C1127 157.825 1136.76 141.625 1144.79 137.821C1155.6 132.7 1214.2 169.113 1214.2 186.182C1214.2 206.665 1165.27 222.026 1144.79 221.457C1128.41 221.002 1137.96 120.942 1144.79 73.5286ZM1144.79 73.5286C1172.86 68.5977 1230.93 60.784 1238.67 68.977C1248.34 79.2182 1223.31 188.458 1248.91 216.337C1274.51 244.216 1308.08 199.268 1301.25 174.803C1294.22 149.612 1238.67 137.252 1230.13 161.717C1221.6 186.182 1215.59 214.693 1230.13 237.388C1244.36 259.578 1460.33 311.938 1487 258C1512.6 206.225 1690.57 291.311 1657 346.5C1630.15 390.651 1493.18 372.042 1433.82 350.611" stroke="black" stroke-width="5" stroke-linecap="round"/>
<path d="M795.451 10.9429C756.573 39.9597 674.15 115.29 655.488 184.475C632.161 270.956 677.677 415.472 655.488 427.42C633.299 439.368 491.628 384.748 431.319 427.42C371.009 470.092 278.269 483.747 234.46 462.695C190.65 441.644 173.012 422.868 76.2894 462.695C-1.08881 494.557 -2.22673 529.073 6.87659 542.349" stroke="black" stroke-width="5" stroke-linecap="round"/>
<path d="M1135.62 181.349L1136 286" stroke="black" stroke-width="5" stroke-linecap="round"/>
</svg>
